<svg xmlns="http://www.w3.org/2000/svg" version="1.1" xmlns:xlink="http://www.w3.org/1999/xlink" xmlns:svgjs="http://svgjs.dev/svgjs" width="1000" height="290" viewBox="0 0 1000 290"><g transform="matrix(1,0,0,1,-0.6060602289579151,-0.16636548237224247)"><svg viewBox="0 0 396 115" data-background-color="#ffffff" preserveAspectRatio="xMidYMid meet" height="290" width="1000" xmlns="http://www.w3.org/2000/svg" xmlns:xlink="http://www.w3.org/1999/xlink"><g id="tight-bounds" transform="matrix(1,0,0,1,0.24000014933267266,0.06597251887174593)"><svg viewBox="0 0 395.52 114.86805496225648" height="114.86805496225648" width="395.52"><g><svg viewBox="0 0 599.3031363330367 174.05133900524868" height="114.86805496225648" width="395.52"><g transform="matrix(1,0,0,1,0,24.05485220694827)"><svg viewBox="0 0 395.52 125.94163459135214" height="125.94163459135214" width="395.52"><g><svg viewBox="0 0 395.52 125.94163459135214" height="125.94163459135214" width="395.52"><g><svg viewBox="0 0 395.52 125.94163459135214" height="125.94163459135214" width="395.52"><g transform="matrix(1,0,0,1,0,0)"><svg width="395.52" viewBox="4.880000114440918 -31.850000381469727 100.02000427246094 31.850000381469727" height="125.94163459135214" data-palette-color="#ba3b0a"><path d="M4.88 0L4.88-31.85 11.7-31.85 21.8-10.93 21.35-10.93 31.45-31.85 38.05-31.85 38.05 0 33.25 0 33.25-26.63 34.02-26.63 23.13-3.78 20-3.78 9.15-26.5 9.63-26.5 9.63 0 4.88 0ZM47.8 0L47.8-31.85 57.55-31.85Q62.4-31.85 65.99-29.89 69.57-27.93 71.57-24.35 73.57-20.78 73.57-15.93L73.57-15.93Q73.57-11.1 71.57-7.53 69.57-3.95 65.99-1.98 62.4 0 57.55 0L57.55 0 47.8 0ZM57.55-27.58L52.55-27.58 52.55-4.2 57.55-4.2Q60.95-4.2 63.39-5.73 65.82-7.25 67.15-9.9 68.47-12.55 68.47-15.93L68.47-15.93Q68.47-19.3 67.15-21.94 65.82-24.58 63.39-26.08 60.95-27.58 57.55-27.58L57.55-27.58ZM93.72 0L81.37 0 81.37-31.85 93.7-31.85Q97.27-31.85 99.63-30.7 102-29.55 103.17-27.65 104.34-25.75 104.34-23.48L104.34-23.48Q104.34-20.75 102.83-18.78 101.32-16.8 98.42-16.05L98.42-16.05Q100.32-15.73 101.77-14.69 103.22-13.65 104.06-12.13 104.9-10.6 104.9-8.75L104.9-8.75Q104.9-7.18 104.34-5.63 103.8-4.08 102.52-2.8 101.25-1.53 99.09-0.76 96.95 0 93.72 0L93.72 0ZM86.12-13.83L86.12-4.15 93.62-4.15Q96.87-4.15 98.33-5.5 99.8-6.85 99.8-9L99.8-9Q99.8-11.18 98.25-12.5 96.7-13.83 93.62-13.83L93.62-13.83 86.12-13.83ZM93.57-27.75L86.12-27.75 86.12-17.95 93.52-17.95Q96.3-17.95 97.88-19.28 99.47-20.6 99.47-22.95L99.47-22.95Q99.47-25.18 97.93-26.46 96.4-27.75 93.57-27.75L93.57-27.75Z" opacity="1" transform="matrix(1,0,0,1,0,0)" fill="#ba3b0a" class="undefined-text-0" data-fill-palette-color="primary" id="text-0"></path></svg></g></svg></g></svg></g></svg></g><g transform="matrix(1,0,0,1,425.25179732778804,0)"><svg viewBox="0 0 174.05133900524868 174.05133900524868" height="174.05133900524868" width="174.05133900524868"><g data-palette-color="#e8772e"><rect width="47.57403266143464" height="174.05133900524868" fill="#e8772e" stroke="transparent" data-fill-palette-color="accent" x="0" fill-opacity="1"></rect><rect width="47.57403266143464" height="174.05133900524868" fill="#e8772e" stroke="transparent" data-fill-palette-color="accent" x="58.017113001749564" fill-opacity="0.75"></rect><rect width="47.57403266143464" height="174.05133900524868" fill="#e8772e" stroke="transparent" data-fill-palette-color="accent" x="116.03422600349913" fill-opacity="0.5"></rect></g></svg></g></svg></g><defs></defs></svg><rect width="395.52" height="114.86805496225648" fill="none" stroke="none" visibility="hidden"></rect></g></svg></g></svg>